<svg xmlns="http://www.w3.org/2000/svg" viewBox="0 0 520 390" role="img" aria-labelledby="title desc">
  <title id="title">AI turns ideas into pictures</title>
  <desc id="desc">A cute robot paints a bright classroom picture from word bubbles.</desc>
  <defs>
    <linearGradient id="bg" x1="0" x2="1" y1="0" y2="1">
      <stop offset="0" stop-color="#fff1c2"/>
      <stop offset=".56" stop-color="#e2f7ff"/>
      <stop offset="1" stop-color="#e7fff4"/>
    </linearGradient>
    <linearGradient id="bot" x1="0" x2="1">
      <stop offset="0" stop-color="#ff7d6e"/>
      <stop offset="1" stop-color="#ffd76a"/>
    </linearGradient>
    <filter id="shadow" x="-20%" y="-20%" width="140%" height="150%">
      <feDropShadow dx="0" dy="12" stdDeviation="9" flood-color="#1f2f4c" flood-opacity=".18"/>
    </filter>
  </defs>
  <rect width="520" height="390" rx="34" fill="url(#bg)"/>
  <circle cx="75" cy="310" r="34" fill="#7bd8b8" opacity=".42"/>
  <circle cx="454" cy="71" r="25" fill="#ff7d6e" opacity=".35"/>
  <path d="M36 336 C105 300 150 317 222 286 C305 250 381 288 474 244 L474 390 H36Z" fill="#fff8da"/>
  <g filter="url(#shadow)">
    <rect x="238" y="74" width="202" height="148" rx="18" fill="#fff" stroke="#253047" stroke-width="8"/>
    <rect x="260" y="96" width="158" height="96" rx="10" fill="#bdeeff"/>
    <circle cx="299" cy="126" r="18" fill="#ffd76a"/>
    <path d="M268 188 L315 145 L348 176 L373 142 L417 188Z" fill="#7bd8b8"/>
    <path d="M276 108 h70" stroke="#253047" stroke-width="7" stroke-linecap="round" opacity=".26"/>
  </g>
  <g filter="url(#shadow)">
    <path d="M148 122 h102 a34 34 0 0 1 34 34 v112 a38 38 0 0 1-38 38 h-94 a38 38 0 0 1-38-38 V156 a34 34 0 0 1 34-34Z" fill="url(#bot)" stroke="#253047" stroke-width="8"/>
    <path d="M199 122 V91" stroke="#253047" stroke-width="8" stroke-linecap="round"/>
    <circle cx="199" cy="78" r="15" fill="#7bd8b8" stroke="#253047" stroke-width="7"/>
    <circle cx="164" cy="190" r="12" fill="#fff"/>
    <circle cx="232" cy="190" r="12" fill="#fff"/>
    <path d="M172 237 Q199 259 228 237" fill="none" stroke="#253047" stroke-width="8" stroke-linecap="round"/>
    <path d="M283 199 l76 54" stroke="#253047" stroke-width="12" stroke-linecap="round"/>
    <path d="M350 244 l43 31" stroke="#ff7d6e" stroke-width="20" stroke-linecap="round"/>
    <path d="M392 274 q21 5 25 24 q-27 6-42-12Z" fill="#43a4f4" stroke="#253047" stroke-width="6"/>
  </g>
  <g filter="url(#shadow)">
    <path d="M63 88 h94 a24 24 0 0 1 0 48 H87 l-30 28 8-28 h-2 a24 24 0 0 1 0-48Z" fill="#fff" stroke="#253047" stroke-width="7"/>
    <path d="M82 113 h26 M122 113 h18" stroke="#43a4f4" stroke-width="8" stroke-linecap="round"/>
    <path d="M74 202 h88 a24 24 0 0 1 0 48 h-40 l-24 27 5-27 H74 a24 24 0 0 1 0-48Z" fill="#fff" stroke="#253047" stroke-width="7"/>
    <circle cx="100" cy="226" r="9" fill="#ff7d6e"/>
    <circle cx="130" cy="226" r="9" fill="#ffd76a"/>
    <circle cx="160" cy="226" r="9" fill="#7bd8b8"/>
  </g>
  <g>
    <path d="M432 242 l21 10 l-21 10 l-10 22 l-10-22 l-22-10 l22-10 l10-22Z" fill="#ffd76a" stroke="#253047" stroke-width="6" stroke-linejoin="round"/>
    <path d="M73 292 l15 7 l-15 7 l-7 16 l-7-16 l-16-7 l16-7 l7-15Z" fill="#ff7d6e" stroke="#253047" stroke-width="5" stroke-linejoin="round"/>
  </g>
</svg>
