<svg xmlns="http://www.w3.org/2000/svg" viewBox="0 0 520 360" role="img" aria-label="cartoon smart speaker">
  <defs>
    <linearGradient id="bg" x1="0" x2="1" y1="0" y2="1">
      <stop offset="0" stop-color="#e3f7ff"/>
      <stop offset="1" stop-color="#fff1c8"/>
    </linearGradient>
    <linearGradient id="speaker" x1="0" x2="1" y1="0" y2="1">
      <stop offset="0" stop-color="#55b8ff"/>
      <stop offset="1" stop-color="#7bd8b8"/>
    </linearGradient>
  </defs>
  <rect width="520" height="360" rx="36" fill="url(#bg)"/>
  <circle cx="88" cy="76" r="28" fill="#ffd76a"/>
  <circle cx="442" cy="72" r="18" fill="#ff7d6e"/>
  <circle cx="446" cy="286" r="32" fill="#d7c6ff"/>
  <path d="M124 276c55 26 222 30 292-2" fill="none" stroke="#b9e6d8" stroke-width="18" stroke-linecap="round"/>
  <rect x="178" y="80" width="164" height="210" rx="44" fill="url(#speaker)" filter="drop-shadow(0 18px 18px rgba(37,48,71,.16))"/>
  <rect x="209" y="114" width="102" height="66" rx="24" fill="#fff"/>
  <circle cx="237" cy="145" r="10" fill="#253047"/>
  <circle cx="283" cy="145" r="10" fill="#253047"/>
  <path d="M240 162q20 20 40 0" fill="none" stroke="#ff7d6e" stroke-width="8" stroke-linecap="round"/>
  <g fill="#fff" opacity=".9">
    <circle cx="226" cy="212" r="7"/>
    <circle cx="260" cy="212" r="7"/>
    <circle cx="294" cy="212" r="7"/>
    <circle cx="226" cy="242" r="7"/>
    <circle cx="260" cy="242" r="7"/>
    <circle cx="294" cy="242" r="7"/>
  </g>
  <path d="M358 132c24 16 38 40 38 68M386 112c38 28 60 64 60 108" fill="none" stroke="#43a4f4" stroke-width="12" stroke-linecap="round"/>
  <path d="M162 132c-24 16-38 40-38 68M134 112c-38 28-60 64-60 108" fill="none" stroke="#43a4f4" stroke-width="12" stroke-linecap="round"/>
</svg>
